%
M48
M72
T01C0.0236
T02C0.0400
T03C0.1220
%
T01
X11150Y10550
X15450Y15050
X16050Y14550
X17450Y14550
X17550Y12350
X16250Y12150
X16050Y9650
X17750Y9450
X18550Y9450
X20350Y9550
X21050Y11550
X22350Y11350
X24150Y11750
X24950Y11550
X24750Y14850
X20350Y14650
X19350Y13050
X19350Y11650
X23150Y8350
T02
X22750Y7450
X23750Y7450
X24750Y7450
X21750Y7450
X14750Y7450
X13750Y7450
X12750Y7450
X11750Y7450
T03
X17126Y7590
X19126Y7590
M30
